<?xml version="1.0" encoding="UTF-8" standalone="no"?>
<!-- Created with Inkscape (http://www.inkscape.org/) -->

<svg
   xmlns:dc="http://purl.org/dc/elements/1.1/"
   xmlns:cc="http://creativecommons.org/ns#"
   xmlns:rdf="http://www.w3.org/1999/02/22-rdf-syntax-ns#"
   xmlns:svg="http://www.w3.org/2000/svg"
   xmlns="http://www.w3.org/2000/svg"
   version="1.1"
   width="463.72696"
   height="455.08698"
   viewBox="20.249 18.977 463.72697 455.08696"
   id="svg3033"
   xml:space="preserve"
   style="stroke:#000000;stroke-width:1.62899995">
   <path
     d="m 277.36177,19.791485 c -81.546,41.204 -180.210995,155.571995 -61.331,195.897995 -2.842,-1.073 -59.517,-3.177 -65.165,-54.165 -100.395995,14.777 -89.616995,148.402 -61.104995,170.128 -18.451,-17.134 -29.814,-34.14 -30.271,-58.178 -86.353,125.15 -13.511,186.03 83.865995,193.415 8.241,-15.344 37.606,-23.045 53.382,-17.621 32.325,11.114 76.566,15.505 109.508,1.372 18.963,-8.137 53.046,8.941 57.617,22.609 111.87,-24.938 163.267,-99.481 73.34,-210.878 -4.887,40.028 -36.059,60.271 -44.395,68.154 136.58,-159.125 -160.369,-161.382 -115.446,-310.733995 z"
     id="path3035"
     style="stroke-width:inherit;fill:#8B4513" />
</svg>